{"asset":{"version":"2.0","generator":"THREE.GLTFExporter"},"scenes":[{"nodes":[0],"name":"AuxScene"}],"scene":0,"nodes":[{"mesh":0}],"bufferViews":[{"buffer":0,"byteOffset":0,"byteLength":10944,"target":34962,"byteStride":12},{"buffer":0,"byteOffset":10944,"byteLength":10944,"target":34962,"byteStride":12}],"buffers":[{"byteLength":21888,"uri":"data:application/octet-stream;base64,"}],"accessors":[{"bufferView":0,"componentType":5126,"count":912,"max":[100.61190795898438,1.7959749698638916,100.61190795898438],"min":[-100.68809509277344,0.295974999666214,-100.68809509277344],"type":"VEC3"},{"bufferView":1,"componentType":5126,"count":912,"max":[0.4295373857021332,1,0.4472135305404663],"min":[-0.7070972919464111,0.7071163058280945,-0.697389543056488],"type":"VEC3"}],"materials":[{"pbrMetallicRoughness":{"baseColorFactor":[0.5019607843137255,0.5019607843137255,0.5019607843137255,1],"metallicFactor":0,"roughnessFactor":1}}],"meshes":[{"primitives":[{"mode":4,"attributes":{"POSITION":0,"NORMAL":1},"material":0}]}]}